<?xml version="1.0" encoding="UTF-8" standalone="no"?>
<svg width="16" height="16" viewBox="0 0 16 16" fill="none" version="1.1" id="svg1" xmlns="http://www.w3.org/2000/svg"
   xmlns:svg="http://www.w3.org/2000/svg">
   <defs id="defs1" />
   <path
      d="m 1.0839808,5.5712992 c -0.05493,-0.0824 -0.08416,-0.1793 -0.08398,-0.2783 v -3.993 l 0.3,-0.29999999 h 3.993 c 0.09894,0 0.19564,0.0294 0.27788,0.0844 0.08223,0.055 0.1463,0.1332 0.1841,0.2246 0.03779,0.0914 0.04761,0.192 0.02821,0.289 -0.0194,0.0971 -0.06714,0.1861 -0.13719,0.256 l -1.173,1.173 -0.281,0.281 L 6.816965,5.93331 c 0.11647,0.11777 0.18188,0.27666 0.18207,0.4423 1.8e-4,0.16563 -0.06486,0.32467 -0.18107,0.4427 -0.11764,0.11682 -0.27671,0.18238 -0.4425,0.18238 -0.16579,0 -0.32485,-0.06556 -0.4425,-0.18238 l -2.6249642,-2.6253108 -1.454,1.454 c -0.06993,0.0701 -0.1591,0.1179 -0.25621,0.1372 -0.09711,0.0194 -0.19778,0.0095 -0.28925,-0.0284 -0.09147,-0.0379 -0.16963,-0.1022 -0.22456,-0.1845 z"
      fill="#000000" id="path1-3-0" />
   <path
      d="m 10.429391,1.0839808 c 0.0824,-0.05493 0.1793,-0.08416 0.2783,-0.08398 h 3.993 l 0.3,0.3 V 5.293001 c 0,0.09894 -0.0294,0.19564 -0.0844,0.27788 -0.055,0.08223 -0.1332,0.1463 -0.2246,0.1841 -0.0914,0.03779 -0.192,0.04761 -0.289,0.02821 -0.0971,-0.0194 -0.1861,-0.06714 -0.256,-0.13719 l -1.173,-1.1730002 -0.281,-0.281 L 10.06738,6.816965 C 9.94961,6.933435 9.79072,6.998845 9.62508,6.999035 9.45945,6.999215 9.30041,6.934175 9.18238,6.817965 9.06556,6.700325 9,6.541255 9,6.375465 9,6.209675 9.06556,6.050615 9.18238,5.932965 l 2.625311,-2.6249642 -1.454,-1.454 c -0.0701,-0.06993 -0.1179,-0.1591 -0.1372,-0.25621 -0.0194,-0.09711 -0.0095,-0.19778 0.0284,-0.28925 0.0379,-0.09147 0.1022,-0.16963 0.1845,-0.22456 z"
      fill="#000000" id="path1-3-0-2" />
   <path
      d="m 5.5713,14.915054 c -0.0824,0.05493 -0.1793,0.08416 -0.2783,0.08398 H 1.3 l -0.3,-0.3 v -3.993 c 0,-0.09894 0.0294,-0.19564 0.0844,-0.27788 0.055,-0.08223 0.1332,-0.1463 0.2246,-0.1841 0.0914,-0.03779 0.192,-0.04761 0.289,-0.02821 0.0971,0.0194 0.1861,0.06714 0.256,0.13719 l 1.173,1.173 0.281,0.281 2.625311,-2.6249636 c 0.11777,-0.11647 0.27666,-0.18188 0.4423,-0.18207 0.16563,-1.8e-4 0.32467,0.06486 0.4427,0.18107 0.11682,0.11764 0.18238,0.27671 0.18238,0.4425 0,0.16579 -0.06556,0.32485 -0.18238,0.4424996 L 4.193,12.691034 l 1.454,1.454 c 0.0701,0.06993 0.1179,0.1591 0.1372,0.25621 0.0194,0.09711 0.0095,0.19778 -0.0284,0.28925 -0.0379,0.09147 -0.1022,0.16963 -0.1845,0.22456 z"
      fill="#000000" id="path1-3-0-1" />
   <path
      d="m 14.915054,10.429391 c 0.05493,0.0824 0.08416,0.1793 0.08398,0.2783 v 3.993 l -0.3,0.3 h -3.993 c -0.09894,0 -0.19564,-0.0294 -0.27788,-0.0844 -0.08223,-0.055 -0.1463,-0.1332 -0.1841,-0.2246 -0.03779,-0.0914 -0.04761,-0.192 -0.02821,-0.289 0.0194,-0.0971 0.06714,-0.1861 0.13719,-0.256 l 1.173,-1.173 0.281,-0.281 -2.6249636,-2.625311 c -0.11647,-0.11777 -0.18188,-0.27666 -0.18207,-0.4423 -1.796e-4,-0.16563 0.06486,-0.32467 0.18107,-0.4427 C 9.2987104,9.06556 9.4577804,9 9.6235704,9 c 0.16579,0 0.32485,0.06556 0.4424996,0.18238 l 2.624964,2.625311 1.454,-1.454 c 0.06993,-0.0701 0.1591,-0.1179 0.25621,-0.1372 0.09711,-0.0194 0.19778,-0.0095 0.28925,0.0284 0.09147,0.0379 0.16963,0.1022 0.22456,0.1845 z"
      fill="#000000" id="path1-3-0-4" />
</svg>