<?xml version="1.0" encoding="UTF-8" standalone="no"?>
<svg
  fill="#000000"
  height="800px"
  width="800px"
  version="1.1"
  id="Fullscreen-Icon"
  viewBox="0 0 384.97 384.97"
  xml:space="preserve"
  xmlns="http://www.w3.org/2000/svg"
  xmlns:svg="http://www.w3.org/2000/svg">
  <defs id="defs10" />
  <g id="Fullscreen">
    <path
      d="M 384.97,13.149353 C 384.97,5.8117297 379.15827,0 371.82065,0 H 253.66994 c -7.46879,0 -13.0313,5.8915221 -13.04442,13.360311 0,7.455672 5.57563,12.939487 13.04442,12.939487 H 358.6702 l -0.21096,105.499782 c 0,7.46879 5.68057,13.14935 13.14936,13.14935 7.46878,-0.0131 13.14935,-5.68056 13.14935,-13.14935 l 0.21096,-118.452386 c 0,-0.03935 -0.0131,-0.06558 -0.0131,-0.09182 0.001,-0.04044 0.0142,-0.06668 0.0142,-0.106025 z"
      id="path1"
      style="stroke-width:1.09305" />
    <path
      d="M 131.68438,0 H 13.554652 C 13.515309,0 13.489081,0.01311423 13.449738,0.01311423 13.42351,0.01311423 13.384167,0 13.357939,0 6.0216184,0 0.20982772,5.8106979 0.20982772,13.147018 L 0,131.57837 c 0,7.46747 5.8904761,13.04211 13.357939,13.04211 7.454348,0 12.93719,-5.57464 12.93719,-13.04211 L 26.504957,26.294036 H 131.68329 c 7.46746,0 13.14702,-5.679555 13.14702,-13.147018 C 144.81828,5.6795555 139.13873,0 131.68438,0 Z"
      id="path2"
      style="stroke-width:1.09285" />
    <path
      d="M 131.27683,358.67495 H 26.295146 v -105.1784 c 0,-7.46747 -5.679559,-13.14703 -13.147027,-13.14703 C 5.680652,240.34952 0,246.02799 0,253.49655 v 118.12871 c 0,0.0393 0.01311424,0.0656 0.01311424,0.0918 C 0.01311424,371.7564 0,371.78263 0,371.82197 0,379.1583 5.8107016,384.969 13.147027,384.969 H 131.27574 c 7.46747,0 13.029,-5.89048 13.04211,-13.35795 0.001,-7.45326 -5.57355,-12.9361 -13.04102,-12.9361 z"
      id="path3"
      style="stroke-width:1.09285" />
    <path
      d="m 371.58061,240.31046 c -7.48509,0 -12.98088,5.5878 -12.96774,13.0729 V 358.61287 H 253.18618 c -7.48509,0 -13.17806,5.69297 -13.17806,13.17807 0,7.48509 5.69297,13.17806 13.17806,13.17806 h 118.40758 c 0.0394,0 0.0657,-0.0131 0.092,-0.0131 0.0394,-0.0131 0.0657,0.0131 0.10516,0.0131 7.35364,0 13.17806,-5.82442 13.17806,-13.17806 V 253.38336 c 0.001,-7.4851 -5.90329,-13.0729 -13.38839,-13.0729 z"
      id="path4"
      style="stroke-width:1.09543" />
    </g>
  </svg>
